<svg xmlns="http://www.w3.org/2000/svg" viewBox="0 0 64 64" width="64" height="64">
  <!-- Helmet dome - dark navy -->
  <path d="M32 6C17 6 10 18 10 30v4l4 2V28c0-10 8-18 18-18s18 8 18 18v8l4-2v-4C54 18 47 6 32 6z" fill="#192E47"/>
  <!-- Red side panels -->
  <path d="M10 30v6l4 2v-6z" fill="#97312A"/>
  <path d="M54 30v6l-4 2v-6z" fill="#97312A"/>
  <!-- Gold visor - iconic V shape -->
  <path d="M14 30l18 12 18-12v4L32 46 14 34z" fill="#DACE4B"/>
  <!-- Red cheek plates -->
  <path d="M14 38l6 4h24l6-4v-4L32 46 14 34z" fill="#97312A"/>
  <!-- Chin/respirator -->
  <rect x="20" y="46" width="24" height="12" rx="3" fill="#333"/>
  <rect x="23" y="49" width="18" height="1.5" rx="0.5" fill="#555"/>
  <rect x="23" y="52.5" width="18" height="1.5" rx="0.5" fill="#555"/>
  <!-- Badge eagle on forehead -->
  <circle cx="32" cy="16" r="4" fill="#DACE4B"/>
  <path d="M28 16l4-3 4 3-4 2z" fill="#97312A"/>
</svg>
