<svg xmlns="http://www.w3.org/2000/svg" viewBox="478 205 325 330" width="32" height="32">
  <path fill="#192E47" stroke="none" d="M 641 213 L 639.5 213 Q 639.25 213 639 213 616.18 213.41 597 218.95 522.66 240.61 503 340 487.9 416 485.35 489.65 515.1 486.7 520 453 L 499 424 Q 502.5 375.55 515.8 329.6 517.8 322.75 520 316 525.05 313.4 531.85 315.95 590.52 351.65 634.35 385.65 636.71 387.46 639 389.25 639.63 389.76 640.25 390.25 640.62 389.95 641 389.65 L 641 380.4 Q 640.62 380.71 640.25 381 639.63 380.51 639 380 619.29 364.63 597 349.35 L 597 258 Q 617.22 252.26 639 251.2 639.62 251.18 640.25 251.15 640.63 251.17 641 251.15 L 641 213 Z"/>
  <path fill="#192E47" stroke="none" d="M 748.65 315.95 Q 755.45 313.4 760.5 316 762.7 322.75 764.7 329.6 778 375.55 781.5 424 L 760.5 453 Q 765.4 486.7 795.15 489.65 792.6 416 777.5 340 757.85 240.63 683.5 219 664.11 213.36 641 213 L 641 251.15 Q 663.05 252.2 683.5 258 L 683.5 349.35 Q 660.93 364.83 641 380.4 L 641 389.65 Q 643.54 387.65 646.1 385.65 689.99 351.65 748.65 315.95 Z"/>
  <path fill="#DACE4B" stroke="none" d="M 641 251.15 Q 640.63 251.17 640.25 251.15 639.62 251.18 639 251.2 617.22 252.26 597 258 L 597 349.35 Q 619.29 364.63 639 380 639.63 380.51 640.25 381 640.62 380.71 641 380.4 L 641 251.15 Z"/>
  <path fill="#DACE4B" stroke="none" d="M 683.5 349.35 L 683.5 258 Q 663.05 252.2 641 251.15 L 641 380.4 Q 660.93 364.83 683.5 349.35 Z"/>
  <path fill="#97312A" stroke="none" d="M 520 316 Q 517.8 322.75 515.8 329.6 502.5 375.55 499 424 L 520 453 Q 515.1 486.7 485.35 489.65 485.15 496.3 485 503 485.79 510.26 489.8 515.15 529.35 491.95 535 474 L 559 380 549 370 549 350 Q 554.06 353.23 559 356.45 591.16 377.55 618.35 398.85 621.26 401.13 624.1 403.4 609.31 415.82 596.55 428 L 612.65 441.7 Q 625.07 429.69 639 417.75 639.62 417.23 640.25 416.7 640.63 417.02 641 417.35 L 641 389.65 Q 640.62 389.95 640.25 390.25 639.63 389.76 639 389.25 636.71 387.46 634.35 385.65 590.52 351.65 531.85 315.95 525.05 313.4 520 316 Z"/>
  <path fill="#97312A" stroke="none" d="M 760.5 316 Q 755.45 313.4 748.65 315.95 689.99 351.65 646.1 385.65 643.54 387.65 641 389.65 L 641 417.35 Q 655.36 429.61 668.1 442 L 683.95 428 Q 671.18 415.81 656.4 403.4 659.23 401.12 662.1 398.85 693.52 374.28 731.5 350 L 731.5 370 721.5 380 745.5 474 Q 751.15 491.95 790.7 515.15 794.71 510.26 795.5 503 795.35 496.3 795.15 489.65 765.4 486.7 760.5 453 L 781.5 424 Q 778 375.55 764.7 329.6 762.7 322.75 760.5 316 M 548 442 L 554 442 559 380 535 474 Q 529.35 491.95 489.8 515.15 494.18 520.47 502.35 523 519.35 513 529.9 503.95 543.35 492.45 546.5 482.5 L 551.2 464 542 464 548 442 Z"/>
  <path fill="#97312A" stroke="none" d="M 729.3 464 L 734 482.5 Q 737.15 492.45 750.6 503.95 761.15 513 778.15 523 786.33 520.47 790.7 515.15 751.15 491.95 745.5 474 L 721.5 380 727 442 732.5 442 738.5 464 729.3 464 Z"/>
  <path fill="#333333" stroke="none" d="M 731.5 370 L 731.5 350 Q 693.52 374.28 662.1 398.85 659.23 401.12 656.4 403.4 671.18 415.81 683.95 428 L 668.1 442 727 442 721.5 380 731.5 370 M 549 350 L 549 370 559 380 554 442 612.4 442 Q 612.54 441.86 612.65 441.7 L 596.55 428 Q 609.31 415.82 624.1 403.4 621.26 401.13 618.35 398.85 591.16 377.55 559 356.45 554.06 353.23 549 350 M 641 417.35 Q 640.63 417.02 640.25 416.7 639.62 417.23 639 417.75 625.07 429.69 612.65 441.7 L 613 442 641 442 668.1 442 Q 655.36 429.61 641 417.35 Z"/>
  <path fill="#D3E2D9" stroke="none" d="M 613 442 L 612.4 442 554 442 548 442 542 464 551.2 464 641 464 641 442 613 442 Z"/>
  <path fill="#D3E2D9" stroke="none" d="M 729.3 464 L 738.5 464 732.5 442 727 442 668.1 442 641 442 641 464 642 464 729.3 464 Z"/>
</svg>
